# xmcd CD database file
#
# Track frame offsets:
#	150
#	10414
#	23866
#	38540
#	52770
#	67183
#	82126
#	97477
#	128652
#	153161
#
# Disc length: 2658 seconds
#
# Revision: 0
# Processed by: cddbd v1.5.1PL0 Copyright (c) Steve Scherf et al.
# Submitted via: CDex 1.51
#
DISCID=7d0a600a
DTITLE=内田順子，かないみか　他 - きんぎょ注意報！ SPECIAL CD
DYEAR=2005
DGENRE=Anime
TTITLE0=内田順子／わぴこの元気予報！
TTITLE1=かないみか／わぴこのちゃん音頭
TTITLE2=内田順子／わぴこメイト行進曲
TTITLE3=内田順子／スーパーきんぎょ
TTITLE4=内田順子／ぎょっぴーダンス
TTITLE5=内田順子／遠足に行きた〜い！
TTITLE6=かないみか／サンタの贈り物
TTITLE7=できるか？新田舎ノ中クリスマスパーティー
TTITLE8=サンタクロースを信じてる？
TTITLE9=ぎょっぴ〜・クリスマス
EXTD=YEAR: 2005
EXTT0=
EXTT1=
EXTT2=
EXTT3=
EXTT4=
EXTT5=
EXTT6=
EXTT7=
EXTT8=
EXTT9=
PLAYORDER=
